<?xml version="1.0" encoding="UTF-8"?>
<svg width="208px" height="36px" viewBox="0 0 208 36" version="1.1" xmlns="http://www.w3.org/2000/svg" xmlns:xlink="http://www.w3.org/1999/xlink">
    <!-- Generator: Sketch 40.1 (33804) - http://www.bohemiancoding.com/sketch -->
    <title>Logo</title>
    <desc>Created with Sketch.</desc>
    <defs></defs>
    <g id="Styles" stroke="none" stroke-width="1" fill="none" fill-rule="evenodd">
        <g id="Typography" transform="translate(-874.000000, -723.000000)">
            <g id="Logo" transform="translate(875.000000, 724.000000)">
                <path d="M47.236,16.756 C48.4120059,18.0120063 49,19.5919905 49,21.496 C49,23.4000095 48.4120059,24.9919936 47.236,26.272 C46.0599941,27.5520064 44.6840079,28.192 43.108,28.192 C41.5319921,28.192 40.2640048,27.5600063 39.304,26.296 L39.304,32.656 L35.704,32.656 L35.704,15.088 L39.304,15.088 L39.304,16.528 C40.4080055,15.4239945 41.7119925,14.872 43.216,14.872 C44.7200075,14.872 46.0599941,15.4999937 47.236,16.756 L47.236,16.756 Z M40.132,24.124 C40.7160029,24.7880033 41.4239958,25.12 42.256,25.12 C43.0880042,25.12 43.8159969,24.7880033 44.44,24.124 C45.0640031,23.4599967 45.376,22.6080052 45.376,21.568 C45.376,20.5279948 45.072003,19.6560035 44.464,18.952 C43.855997,18.2479965 43.1280042,17.896 42.28,17.896 C41.4319958,17.896 40.7160029,18.2439965 40.132,18.94 C39.5479971,19.6360035 39.256,20.5079948 39.256,21.556 C39.256,22.6040052 39.5479971,23.4599967 40.132,24.124 L40.132,24.124 Z M61.6274286,28 L58.2434286,28 L58.2434286,26.44 C57.315424,27.6080058 56.1674355,28.192 54.7994286,28.192 C53.4314218,28.192 52.2834333,27.796004 51.3554286,27.004 C50.427424,26.211996 49.9634286,25.1560066 49.9634286,23.836 C49.9634286,22.5159934 50.4434238,21.5280033 51.4034286,20.872 C52.3634334,20.2159967 53.6754203,19.888 55.3394286,19.888 L58.0274286,19.888 L58.0274286,19.816 C58.0274286,18.4399931 57.2994359,17.752 55.8434286,17.752 C55.2194255,17.752 54.5594321,17.8759988 53.8634286,18.124 C53.1674252,18.3720012 52.579431,18.6799982 52.0994286,19.048 L50.4914286,16.72 C52.1874371,15.4879938 54.1234178,14.872 56.2994286,14.872 C57.8674365,14.872 59.1474237,15.2639961 60.1394286,16.048 C61.1314336,16.8320039 61.6274286,18.0719915 61.6274286,19.768 L61.6274286,28 Z M58.0034286,23.08 L58.0034286,22.456 L55.7474286,22.456 C54.3074214,22.456 53.5874286,22.9039955 53.5874286,23.8 C53.5874286,24.2640023 53.7594269,24.6199988 54.1034286,24.868 C54.4474304,25.1160012 54.9394254,25.24 55.5794286,25.24 C56.2194318,25.24 56.7834262,25.044002 57.2714286,24.652 C57.7594311,24.259998 58.0034286,23.7360033 58.0034286,23.08 L58.0034286,23.08 Z M75.4188573,16.756 C76.5948631,18.0120063 77.1828573,19.5919905 77.1828573,21.496 C77.1828573,23.4000095 76.5948631,24.9919936 75.4188573,26.272 C74.2428514,27.5520064 72.8668651,28.192 71.2908573,28.192 C69.7148494,28.192 68.4468621,27.5600063 67.4868573,26.296 L67.4868573,32.656 L63.8868573,32.656 L63.8868573,15.088 L67.4868573,15.088 L67.4868573,16.528 C68.5908628,15.4239945 69.8948497,14.872 71.3988573,14.872 C72.9028648,14.872 74.2428514,15.4999937 75.4188573,16.756 L75.4188573,16.756 Z M68.3148573,24.124 C68.8988602,24.7880033 69.6068531,25.12 70.4388573,25.12 C71.2708614,25.12 71.9988541,24.7880033 72.6228573,24.124 C73.2468604,23.4599967 73.5588573,22.6080052 73.5588573,21.568 C73.5588573,20.5279948 73.2548603,19.6560035 72.6468573,18.952 C72.0388542,18.2479965 71.3108615,17.896 70.4628573,17.896 C69.614853,17.896 68.8988602,18.2439965 68.3148573,18.94 C67.7308543,19.6360035 67.4388573,20.5079948 67.4388573,21.556 C67.4388573,22.6040052 67.7308543,23.4599967 68.3148573,24.124 L68.3148573,24.124 Z M90.0262859,26.128 C88.5702786,27.5040069 86.8622957,28.192 84.9022859,28.192 C82.9422761,28.192 81.3222923,27.588006 80.0422859,26.38 C78.7622795,25.171994 78.1222859,23.5520102 78.1222859,21.52 C78.1222859,19.4879898 78.7742794,17.872006 80.0782859,16.672 C81.3822924,15.471994 82.922277,14.872 84.6982859,14.872 C86.4742948,14.872 87.9822797,15.4079946 89.2222859,16.48 C90.4622921,17.5520054 91.0822859,19.0239906 91.0822859,20.896 L91.0822859,22.816 L81.6742859,22.816 C81.7862865,23.5200035 82.1542828,24.0959978 82.7782859,24.544 C83.402289,24.9920022 84.106282,25.216 84.8902859,25.216 C86.1542922,25.216 87.1942818,24.7920042 88.0102859,23.944 L90.0262859,26.128 Z M86.5702859,18.472 C86.0742834,18.0559979 85.4702895,17.848 84.7582859,17.848 C84.0462823,17.848 83.3942889,18.0639978 82.8022859,18.496 C82.2102829,18.9280022 81.8662864,19.5119963 81.7702859,20.248 L87.4342859,20.248 C87.3542855,19.4799962 87.0662884,18.8880021 86.5702859,18.472 L86.5702859,18.472 Z M99.4377145,18.256 C98.3657092,18.256 97.5657172,18.6359962 97.0377145,19.396 C96.5097119,20.1560038 96.2457145,21.1599938 96.2457145,22.408 L96.2457145,28 L92.6457145,28 L92.6457145,15.088 L96.2457145,15.088 L96.2457145,16.792 C96.7097169,16.2639974 97.2897111,15.8160018 97.9857145,15.448 C98.681718,15.0799982 99.3897109,14.8880001 100.109715,14.872 L100.133715,18.256 L99.4377145,18.256 Z M115.813087,16.1113281 C116.785749,16.6464871 117.545507,17.3984327 118.092384,18.3671875 C118.639262,19.3359423 118.912697,20.4335876 118.912697,21.6601562 C118.912697,22.9101625 118.639262,24.0195264 118.092384,24.9882812 C117.545507,25.9570361 116.785749,26.7128879 115.813087,27.2558594 C114.840426,27.7988308 113.736922,28.0703125 112.502541,28.0703125 C111.268159,28.0703125 110.162702,27.7988308 109.186134,27.2558594 C108.209567,26.7128879 107.449809,25.9570361 106.906837,24.9882812 C106.363866,24.0195264 106.092384,22.9101625 106.092384,21.6601562 C106.092384,20.4257751 106.363866,19.3261767 106.906837,18.3613281 C107.449809,17.3964796 108.209567,16.6464871 109.186134,16.1113281 C110.162702,15.5761692 111.268159,15.3085937 112.502541,15.3085937 C113.736922,15.3085937 114.840426,15.5761692 115.813087,16.1113281 L115.813087,16.1113281 Z M110.158791,17.6054687 C109.463475,18.0039082 108.924417,18.5566371 108.541603,19.2636719 C108.158789,19.9707067 107.967384,20.7773392 107.967384,21.6835937 C107.967384,22.5976608 108.158789,23.4101527 108.541603,24.1210937 C108.924417,24.8320348 109.463475,25.3886699 110.158791,25.7910156 C110.854107,26.1933614 111.635349,26.3945312 112.502541,26.3945312 C113.369732,26.3945312 114.150975,26.1933614 114.846291,25.7910156 C115.541607,25.3886699 116.080664,24.8320348 116.463478,24.1210937 C116.846292,23.4101527 117.037697,22.5976608 117.037697,21.6835937 C117.037697,20.7695267 116.846292,19.960941 116.463478,19.2578125 C116.080664,18.554684 115.539653,18.0039082 114.840431,17.6054687 C114.141209,17.2070293 113.36192,17.0078125 112.502541,17.0078125 C111.635349,17.0078125 110.854107,17.2070293 110.158791,17.6054687 L110.158791,17.6054687 Z M124.809907,16.0410156 C125.575536,15.5527319 126.493495,15.3007813 127.563813,15.2851562 L127.563813,17.171875 C126.251306,17.1562499 125.196629,17.5214806 124.39975,18.2675781 C123.602871,19.0136756 123.145845,20.0195249 123.028657,21.2851562 L123.028657,28 L121.165375,28 L121.165375,15.3554687 L123.028657,15.3554687 L123.028657,18.15625 C123.450534,17.2343704 124.044278,16.5292993 124.809907,16.0410156 L124.809907,16.0410156 Z M145.313045,16.756 C146.489051,18.0120063 147.077045,19.5919905 147.077045,21.496 C147.077045,23.4000095 146.489051,24.9919936 145.313045,26.272 C144.137039,27.5520064 142.761053,28.192 141.185045,28.192 C139.609037,28.192 138.34105,27.5600063 137.381045,26.296 L137.381045,32.656 L133.781045,32.656 L133.781045,15.088 L137.381045,15.088 L137.381045,16.528 C138.485051,15.4239945 139.789038,14.872 141.293045,14.872 C142.797053,14.872 144.137039,15.4999937 145.313045,16.756 L145.313045,16.756 Z M138.209045,24.124 C138.793048,24.7880033 139.501041,25.12 140.333045,25.12 C141.165049,25.12 141.893042,24.7880033 142.517045,24.124 C143.141048,23.4599967 143.453045,22.6080052 143.453045,21.568 C143.453045,20.5279948 143.149048,19.6560035 142.541045,18.952 C141.933042,18.2479965 141.205049,17.896 140.357045,17.896 C139.509041,17.896 138.793048,18.2439965 138.209045,18.94 C137.625042,19.6360035 137.333045,20.5079948 137.333045,21.556 C137.333045,22.6040052 137.625042,23.4599967 138.209045,24.124 L138.209045,24.124 Z M152.336474,28 L148.736474,28 L148.736474,10.192 L152.336474,10.192 L152.336474,28 Z M165.683902,28 L162.299902,28 L162.299902,26.44 C161.371898,27.6080058 160.223909,28.192 158.855902,28.192 C157.487896,28.192 156.339907,27.796004 155.411902,27.004 C154.483898,26.211996 154.019902,25.1560066 154.019902,23.836 C154.019902,22.5159934 154.499898,21.5280033 155.459902,20.872 C156.419907,20.2159967 157.731894,19.888 159.395902,19.888 L162.083902,19.888 L162.083902,19.816 C162.083902,18.4399931 161.35591,17.752 159.899902,17.752 C159.275899,17.752 158.615906,17.8759988 157.919902,18.124 C157.223899,18.3720012 156.635905,18.6799982 156.155902,19.048 L154.547902,16.72 C156.243911,15.4879938 158.179892,14.872 160.355902,14.872 C161.92391,14.872 163.203898,15.2639961 164.195902,16.048 C165.187907,16.8320039 165.683902,18.0719915 165.683902,19.768 L165.683902,28 Z M162.059902,23.08 L162.059902,22.456 L159.803902,22.456 C158.363895,22.456 157.643902,22.9039955 157.643902,23.8 C157.643902,24.2640023 157.815901,24.6199988 158.159902,24.868 C158.503904,25.1160012 158.995899,25.24 159.635902,25.24 C160.275906,25.24 160.8399,25.044002 161.327902,24.652 C161.815905,24.259998 162.059902,23.7360033 162.059902,23.08 L162.059902,23.08 Z M176.259331,27.04 C175.323326,27.8080038 174.135338,28.192 172.695331,28.192 C171.735326,28.192 170.735336,28.0200017 169.695331,27.676 C168.655326,27.3319983 167.719335,26.8240034 166.887331,26.152 L168.471331,23.896 C169.815338,24.9360052 171.247323,25.456 172.767331,25.456 C173.231333,25.456 173.59933,25.3640009 173.871331,25.18 C174.143332,24.9959991 174.279331,24.7520015 174.279331,24.448 C174.279331,24.1439985 174.091333,23.8640013 173.715331,23.608 C173.339329,23.3519987 172.795335,23.1120011 172.083331,22.888 C171.371328,22.6639989 170.827333,22.4720008 170.451331,22.312 C170.075329,22.1519992 169.647333,21.9200015 169.167331,21.616 C168.191326,21.007997 167.703331,20.108006 167.703331,18.916 C167.703331,17.723994 168.183326,16.7520038 169.143331,16 C170.103336,15.2479962 171.343323,14.872 172.863331,14.872 C174.383339,14.872 175.903323,15.3839949 177.423331,16.408 L176.079331,18.808 C174.959325,18.0399962 173.843337,17.656 172.731331,17.656 C171.619326,17.656 171.063331,17.959997 171.063331,18.568 C171.063331,18.9040017 171.239329,19.167999 171.591331,19.36 C171.943333,19.552001 172.527327,19.7759987 173.343331,20.032 C174.159335,20.2880013 174.739329,20.4839993 175.083331,20.62 C175.427333,20.7560007 175.839329,20.9679986 176.319331,21.256 C177.215336,21.8000027 177.663331,22.7079936 177.663331,23.98 C177.663331,25.2520064 177.195336,26.2719962 176.259331,27.04 L176.259331,27.04 Z M183.59476,17.68 L183.59476,23.464 C183.59476,23.9600025 183.722758,24.3479986 183.97876,24.628 C184.234761,24.9080014 184.538758,25.048 184.89076,25.048 C185.562763,25.048 186.130757,24.744003 186.59476,24.136 L187.93876,26.656 C186.818754,27.6800051 185.638766,28.192 184.39876,28.192 C183.158754,28.192 182.110764,27.7840041 181.25476,26.968 C180.398755,26.1519959 179.97076,25.040007 179.97076,23.632 L179.97076,17.68 L178.45876,17.68 L178.45876,15.088 L179.97076,15.088 L179.97076,11.224 L183.59476,11.224 L183.59476,15.088 L186.71476,15.088 L186.71476,17.68 L183.59476,17.68 Z M192.430188,28 L188.830188,28 L188.830188,15.088 L192.430188,15.088 L192.430188,28 Z M188.518188,11.944 C188.518188,11.351997 188.722186,10.852002 189.130188,10.444 C189.53819,10.035998 190.038185,9.832 190.630188,9.832 C191.222191,9.832 191.722186,10.035998 192.130188,10.444 C192.53819,10.852002 192.742188,11.351997 192.742188,11.944 C192.742188,12.536003 192.53819,13.035998 192.130188,13.444 C191.722186,13.852002 191.222191,14.056 190.630188,14.056 C190.038185,14.056 189.53819,13.852002 189.130188,13.444 C188.722186,13.035998 188.518188,12.536003 188.518188,11.944 L188.518188,11.944 Z M201.001617,25 C202.201623,25 203.281612,24.400006 204.241617,23.2 L206.377617,25.6 C204.713609,27.3280086 202.913627,28.192 200.977617,28.192 C199.041607,28.192 197.405624,27.5800061 196.069617,26.356 C194.73361,25.1319939 194.065617,23.5320099 194.065617,21.556 C194.065617,19.5799901 194.74161,17.9720062 196.093617,16.732 C197.445624,15.4919938 199.049608,14.872 200.905617,14.872 C201.833622,14.872 202.773612,15.0639981 203.725617,15.448 C204.677622,15.8320019 205.513613,16.3999962 206.233617,17.152 L204.361617,19.6 C203.945615,19.1039975 203.43762,18.7200014 202.837617,18.448 C202.237614,18.1759986 201.64162,18.04 201.049617,18.04 C200.105612,18.04 199.29362,18.3479969 198.613617,18.964 C197.933614,19.5800031 197.593617,20.4359945 197.593617,21.532 C197.593617,22.6280055 197.933614,23.479997 198.613617,24.088 C199.29362,24.696003 200.089612,25 201.001617,25 L201.001617,25 Z" id="paper-or-plastic" fill="#000000"></path>
                <g id="j91">
                    <g id="Page-1">
                        <g>
                            <g id="j91">
                                <path d="M3.37506579,11.9450526 C2.84721491,11.0949474 1.92061404,10.2833684 0.856644737,10.3162105" id="Stroke-130" stroke="#000000" stroke-width="0.75"></path>
                                <g id="Stroke-132"></g>
                                <path d="M10.3954825,14.4694737 C12.0337281,14.7789474 13.0519079,14.6381053 14.4109649,13.6787368 C15.1823904,13.1336842 15.8571491,12.7793684 16.5961404,12.6315789" id="Stroke-134" stroke="#000000" stroke-width="0.75"></path>
                                <path d="M14.7950877,6.85136842 L11.2820175,7.61368421 C10.7993202,7.71852632 10.3178947,7.41221053 10.2123246,6.93221053 C10.1067544,6.45284211 10.4151974,5.97473684 10.8985307,5.86989474 L14.4109649,5.10694737 C14.8942982,5.00210526 15.3757237,5.30905263 15.4812939,5.78905263 C15.586864,6.26842105 15.2777851,6.74652632 14.7950877,6.85136842 L14.7950877,6.85136842 L14.7950877,6.85136842 Z" id="Stroke-136" stroke="#000000" stroke-width="0.75"></path>
                                <path d="M23.3284649,12.5715789 C23.0168421,13.4835789 22.021557,13.9711579 21.1025877,13.6616842 C20.1842544,13.3515789 19.1889693,13.8391579 18.8767105,14.7511579" id="Stroke-138" stroke="#000000" stroke-width="0.75"></path>
                                <path d="M24.8331579,8.17073684 C24.5208991,9.08273684 23.525614,9.57031579 22.6072807,9.26084211 C21.6889474,8.95073684 20.6930263,9.43831579 20.3814035,10.3509474" id="Stroke-140" stroke="#000000" stroke-width="0.75"></path>
                                <path d="M25.5956798,4.13368421 C25.3355702,4.89347368 24.5062719,5.29957895 23.7405702,5.04189474 C22.9748684,4.78357895 22.1455702,5.18968421 21.8854605,5.95010526" id="Stroke-142" stroke="#000000" stroke-width="0.75"></path>
                                <path d="M26.0147807,15.9991579 L24.9050219,31.8063158 C24.8236184,33.3846316 23.5116228,34.6225263 21.9204386,34.6225263 L4.06826754,34.6225263 C2.47708333,34.6225263 1.16508772,33.3846316 1.08368421,31.8063158 L0.000635964912,16.5176842 C-0.0178070175,16.1583158 0.374583333,15.924 0.685570175,16.1090526 L1.54094298,16.6187368 C2.52350877,17.2042105 3.75092105,17.2042105 4.73348684,16.6187368 L4.9535307,16.4873684 C5.79236842,15.9877895 6.84107456,15.9877895 7.67991228,16.4873684 L8.13335526,16.7576842 C8.97219298,17.2578947 10.0208991,17.2578947 10.8597368,16.7576842 L11.3131798,16.4873684 C12.1520175,15.9877895 13.2007237,15.9877895 14.0395614,16.4873684 L14.4930044,16.7576842 C15.3318421,17.2578947 16.3805482,17.2578947 17.219386,16.7576842 L17.6728289,16.4873684 C18.5116667,15.9877895 19.5603728,15.9877895 20.3992105,16.4873684 L20.8526535,16.7576842 C21.6914912,17.2578947 22.7401974,17.2578947 23.5790351,16.7576842 L25.7336842,15.8071579 C25.8704167,15.7465263 26.0224123,15.8507368 26.0147807,15.9991579 L26.0147807,15.9991579 L26.0147807,15.9991579 Z" id="Stroke-144" stroke="#000000" stroke-width="0.75"></path>
                                <path d="M3.17982456,25 L7.63157895,25" id="Stroke-146" stroke="#000000" stroke-width="0.75"></path>
                                <path d="M3.17982456,28 L8.90350877,28" id="Stroke-148" stroke="#000000" stroke-width="0.75"></path>
                                <path d="M3.17982456,30 L10.1754386,30" id="Stroke-150" stroke="#000000" stroke-width="0.75"></path>
                                <path d="M12.7192982,30 L13.9912281,30" id="Stroke-152" stroke="#000000" stroke-width="0.75"></path>
                                <path d="M17.2626316,16.7576842 L17.7154386,16.4873684 C18.5549123,15.9877895 19.6029825,15.9877895 20.4424561,16.4873684 L20.8952632,16.7576842 C21.7347368,17.2578947 22.782807,17.2578947 23.6222807,16.7576842 L24.90375,16.1917895 C25.0919956,15.6701053 25.2230044,15.2930526 25.2751535,15.1256842 C26.4707675,11.3065263 27.2409211,7.28463158 27.3458553,3.27410526 C27.3878289,1.66105263 26.0440351,-0.854526316 23.8124342,0.288631579 C21.6196272,1.41157895 20.0481579,5.71831579 18.9441228,7.76336842 C17.3758333,10.6692632 16.1357018,13.8290526 15.2523465,17.0501053 C15.9251974,17.2181053 16.6495614,17.1227368 17.2626316,16.7576842 L17.2626316,16.7576842 L17.2626316,16.7576842 Z" id="Stroke-154" stroke="#000000" stroke-width="0.75"></path>
                                <path d="M11.1045833,8.90210526 C10.5035965,9.696 9.55473684,10.6357895 9.92041667,12.2955789 L10.9023465,16.7576842 L10.9029825,16.7576842 L11.3557895,16.4873684 C12.1952632,15.9877895 13.2433333,15.9877895 14.082807,16.4873684 L14.535614,16.7576842 C14.9051096,16.9774737 15.3146711,17.0949474 15.7293202,17.1214737 C15.569057,17.1107368 15.4087939,17.0892632 15.2523465,17.0501053 C15.9150219,14.6355789 16.7773904,12.2545263 17.8286404,9.98968421 C17.3364035,8.76694737 16.2857895,8.35768421 15.5226316,7.93831579 C15.5181798,7.93578947 15.5137281,7.93389474 15.5099123,7.93136842 C15.0265789,7.65663158 14.9966886,7.00042105 15.3604605,6.58231579 C15.5029167,6.41747368 15.569693,6.19073684 15.5194518,5.96336842 L15.443136,5.61410526 C15.3585526,5.23073684 14.9731579,4.98505263 14.5864912,5.06905263 L10.7230044,5.90778947 C10.3363377,5.99178947 10.0895833,6.37389474 10.1735307,6.75789474 L10.2504825,7.10652632 C10.3013596,7.33894737 10.4628947,7.51894737 10.6676754,7.60673684 C11.1382895,7.80821053 11.4244737,8.32926316 11.1840789,8.77831579 C11.1611842,8.82063158 11.1344737,8.86231579 11.1045833,8.90210526 L11.1045833,8.90210526 L11.1045833,8.90210526 Z" id="Stroke-156" stroke="#000000" stroke-width="0.75"></path>
                                <path d="M0.728179825,16.1090526 L1.58355263,16.6187368 C2.56611842,17.2042105 3.7935307,17.2042105 4.77609649,16.6187368 L4.99614035,16.4873684 C5.83561404,15.9877895 6.88368421,15.9877895 7.72315789,16.4873684 L8.17596491,16.7576842 C8.66883772,17.0513684 9.23357456,17.1675789 9.78622807,17.1164211 C10.1932456,15.8109474 10.0558772,14.1783158 9.42563596,13.0743158 C7.30405702,9.35747368 5.53925439,10.1153684 3.84122807,11.7290526 C3.51561404,12.0385263 3.1175,12.2652632 2.68377193,12.3884211 C0.821666667,12.9170526 -0.552653509,13.7816842 0.228311404,16.1355789 C0.366951754,16.0351579 0.559013158,16.008 0.728179825,16.1090526 L0.728179825,16.1090526 L0.728179825,16.1090526 Z" id="Stroke-158" stroke="#000000" stroke-width="0.75"></path>
                                <path d="M16.3913596,4.16652632 C16.3061404,2.93621053 15.2765132,1.96357895 14.0160307,1.96357895 C14.0122149,1.96357895 14.0083991,1.96421053 14.0052193,1.96421053 C14.0274781,1.77789474 14.0147588,1.58084211 13.9543421,1.37494737 C13.7832675,0.797684211 13.2725877,0.354315789 12.6703289,0.283578947 C12.1768202,0.225473684 11.7240132,0.401052632 11.4066667,0.712421053 C11.1045833,0.442105263 10.7083772,0.272210526 10.2695614,0.272210526 C9.32960526,0.272210526 8.56708333,1.02947368 8.56708333,1.96357895 C8.56708333,1.96610526 8.5677193,1.96926316 8.5677193,1.97178947 C7.42489035,2.05831579 6.52372807,3.00442105 6.52372807,4.16147368 C6.52372807,4.33831579 6.54662281,4.50947368 6.5866886,4.67431579 C5.22635965,4.73052632 4.14013158,5.84084211 4.14013158,7.20568421 C4.14013158,7.668 4.26605263,8.1 4.4841886,8.47326316 C4.06572368,8.81494737 3.79925439,9.33221053 3.79925439,9.91136842 C3.79925439,10.4406316 4.02502193,10.9149474 4.38243421,11.2528421 C5.91701754,10.008 7.52855263,9.75031579 9.42563596,13.0743158 C10.0558772,14.1783158 9.92041667,12.2955789 9.92041667,12.2955789 C9.55473684,10.6357895 10.5035965,9.696 11.1045833,8.90210526 C11.1344737,8.86231579 11.1611842,8.82063158 11.1840789,8.77831579 C11.4244737,8.32926316 11.1382895,7.80821053 10.6676754,7.60673684 C10.4628947,7.51894737 10.3013596,7.33894737 10.2504825,7.10652632 L10.1735307,6.75789474 C10.0895833,6.37389474 10.3363377,5.99178947 10.7230044,5.90778947 L14.5864912,5.06905263 C14.9731579,4.98505263 15.3585526,5.23073684 15.443136,5.61410526 L15.5194518,5.96336842 C15.569693,6.19073684 15.5029167,6.41747368 15.3604605,6.58231579 C14.9966886,7.00042105 15.0265789,7.65663158 15.5099123,7.93136842 C15.5137281,7.93389474 15.5181798,7.93578947 15.5226316,7.93831579 C16.1096272,8.26105263 16.8651535,8.58126316 17.4076316,9.26778947 C18.0257895,8.71578947 18.4245395,7.94526316 18.4423465,7.10084211 C18.4703289,5.74484211 17.6047807,4.58905263 16.3913596,4.16652632 L16.3913596,4.16652632 L16.3913596,4.16652632 Z" id="Stroke-160" stroke="#000000" stroke-width="0.75"></path>
                            </g>
                        </g>
                    </g>
                </g>
            </g>
        </g>
    </g>
</svg>